PathFileType	4	(X/Y/Z)	/Users/itak/Documents/Research/Walk-IL/dataset/trc/00420_00012.trc
DataRate	CameraRate	NumFrames	NumMarkers	Units	OrigDataRate	OrigDataStartFrame	OrigNumFrames
100.000000	100.000000	4	53	mm	100.000000	0	617
Frame#	Time	RPSI			LPSI			L3			STRN			T10			C7			CLAV			RBAK			LBAK			LSHO			LUPA			LAEL			LAOL			LWTS			LWPS			LFRA			LIFD			LHPS			LHTS			RSHO			RUPA			RAEL			RAOL			RWTS			RWPS			RFRA			RIFD			RHTS			RHPS			RBHD			LFHD			RFHD			LBHD			LHIP			RHIP			RASI			LASI			LKNE			LTHI			LANK			LTIP			LTOE			LMT1			LMT5			LHEE			RKNE			RTHI			RANK			RTIP			RTOE			RMT1			RMT5			RHEE			
		X1	Y1	Z1	X2	Y2	Z2	X3	Y3	Z3	X4	Y4	Z4	X5	Y5	Z5	X6	Y6	Z6	X7	Y7	Z7	X8	Y8	Z8	X9	Y9	Z9	X10	Y10	Z10	X11	Y11	Z11	X12	Y12	Z12	X13	Y13	Z13	X14	Y14	Z14	X15	Y15	Z15	X16	Y16	Z16	X17	Y17	Z17	X18	Y18	Z18	X19	Y19	Z19	X20	Y20	Z20	X21	Y21	Z21	X22	Y22	Z22	X23	Y23	Z23	X24	Y24	Z24	X25	Y25	Z25	X26	Y26	Z26	X27	Y27	Z27	X28	Y28	Z28	X29	Y29	Z29	X30	Y30	Z30	X31	Y31	Z31	X32	Y32	Z32	X33	Y33	Z33	X34	Y34	Z34	X35	Y35	Z35	X36	Y36	Z36	X37	Y37	Z37	X38	Y38	Z38	X39	Y39	Z39	X40	Y40	Z40	X41	Y41	Z41	X42	Y42	Z42	X43	Y43	Z43	X44	Y44	Z44	X45	Y45	Z45	X46	Y46	Z46	X47	Y47	Z47	X48	Y48	Z48	X49	Y49	Z49	X50	Y50	Z50	X51	Y51	Z51	X52	Y52	Z52	X53	Y53	Z53	

1	0	-1540.032348632812	993.0059204101562	-586.4230346679688	-1551.526489257812	984.3253173828125	-717.1810913085938	-1544.406860351562	1061.09814453125	-650.0795288085938	-1309.160522460938	1214.786010742188	-661.2910766601562	-1553.896728515625	1164.903564453125	-654.585693359375	-1516.418090820312	1413.634643554688	-666.6717529296875	-1359.034423828125	1333.988891601562	-661.2262573242188	-1558.083740234375	1268.924926757812	-595.915283203125	-1530.367919921875	1374.893310546875	-771.0308837890625	-1443.848022460938	1390.24560546875	-820.5260009765625	-1455.339965820312	1272.403198242188	-891.6818237304688	-1414.807250976562	1074.818115234375	-906.2435913085938	-1476.96044921875	1051.980834960938	-853.4256591796875	-1315.34130859375	868.41748046875	-832.3137817382812	-1348.03759765625	849.5457153320312	-905.0784912109375	-1387.077392578125	971.9700927734375	-908.0942993164062	-1301.398193359375	691.9716186523438	-822.8317260742188	-1328.547119140625	765.7967529296875	-889.8936767578125	-1287.323120117188	774.2312622070312	-842.8599853515625	-1452.6494140625	1392.64306640625	-508.1076049804688	-1457.987182617188	1325.982788085938	-448.6670837402344	-1414.620849609375	1065.125610351562	-410.6107788085938	-1446.960815429688	1053.006958007812	-496.4457397460938	-1276.869018554688	858.3529663085938	-461.4062194824219	-1305.905395507812	845.2392578125	-392.6051025390625	-1380.416259765625	1003.901000976562	-398.6520385742188	-1270.654907226562	684.4718017578125	-461.7942810058594	-1250.284545898438	753.8447875976562	-447.6058654785156	-1295.313110351562	756.840576171875	-394.1575622558594	-1503.21923828125	1591.732788085938	-578.9190063476562	-1349.75146484375	1620.7060546875	-704.3262939453125	-1372.040771484375	1616.419555664062	-582.741455078125	-1492.305786132812	1594.524658203125	-740.9835815429688	-1471.00390625	969.7120971679688	-834.5982666015625	-1450.96630859375	968.96435546875	-476.003662109375	-1322.832275390625	973.4542236328125	-539.775390625	-1355.003051757812	965.7937622070312	-800.189208984375	-1428.533569335938	475.2917175292969	-812.6736450195312	-1434.346557617188	617.507080078125	-824.8026733398438	-1515.1669921875	42.72419357299805	-757.8277587890625	-1474.140869140625	244.4638824462891	-798.45849609375	-1294.605712890625	46.17416381835938	-716.1539306640625	-1373.073486328125	45.25968933105469	-678.3543701171875	-1389.873657226562	41.88279724121094	-782.228515625	-1546.023559570312	41.54561233520508	-697.1634521484375	-1415.303955078125	476.8242492675781	-498.0755615234375	-1373.882690429688	740.67236328125	-481.8768615722656	-1460.702514648438	58.19268417358398	-528.1441650390625	-1406.560791015625	351.6929321289062	-513.5811767578125	-1283.514404296875	40.10391235351562	-599.3409423828125	-1362.017578125	43.67600631713867	-625.6185913085938	-1375.911987304688	48.8182258605957	-527.64013671875	-1535.916381835938	44.17494964599609	-577.3482055664062	
2	0.01	-1540.068725585938	992.9964599609375	-586.4282836914062	-1551.591064453125	984.317138671875	-717.1841430664062	-1544.445434570312	1061.105834960938	-650.083984375	-1309.177490234375	1214.78955078125	-661.3272094726562	-1553.9267578125	1164.91796875	-654.5925903320312	-1516.428344726562	1413.644409179688	-666.6919555664062	-1359.04150390625	1333.984619140625	-661.2435913085938	-1558.093139648438	1268.937255859375	-595.9288330078125	-1530.391967773438	1374.905395507812	-771.0558471679688	-1443.872680664062	1390.248046875	-820.5580444335938	-1455.393798828125	1272.40185546875	-891.70166015625	-1414.84375	1074.808349609375	-906.2465209960938	-1477.031005859375	1051.990234375	-853.4232788085938	-1315.580200195312	868.344970703125	-832.3201293945312	-1348.205810546875	849.5164794921875	-905.1048583984375	-1387.166259765625	971.9545288085938	-908.1134643554688	-1301.549438476562	691.931884765625	-822.8597412109375	-1328.715454101562	765.7650146484375	-889.9202270507812	-1287.468017578125	774.1804809570312	-842.8369750976562	-1452.64404296875	1392.64501953125	-508.1386413574219	-1457.98583984375	1325.9873046875	-448.6911926269531	-1414.626953125	1065.126953125	-410.6261291503906	-1446.831176757812	1053.009399414062	-496.4234619140625	-1276.917602539062	858.3514404296875	-461.4762878417969	-1305.951171875	845.2259521484375	-392.6444091796875	-1380.444091796875	1003.900573730469	-398.6813049316406	-1270.789916992188	684.4584350585938	-461.8641357421875	-1250.291870117188	753.8233032226562	-447.6637878417969	-1295.337036132812	756.8176879882812	-394.197509765625	-1503.226928710938	1591.71240234375	-578.9135131835938	-1349.774780273438	1620.719848632812	-704.3385620117188	-1372.033203125	1616.401977539062	-582.7452392578125	-1492.354370117188	1594.531616210938	-740.9805908203125	-1471.065673828125	969.7039794921875	-834.6079711914062	-1450.85986328125	968.77490234375	-476.17822265625	-1322.889770507812	973.4688720703125	-539.8063354492188	-1355.030151367188	965.8168334960938	-800.2007446289062	-1428.534057617188	475.2921752929688	-812.6763305664062	-1434.353637695312	617.5037231445312	-824.811279296875	-1515.169067382812	42.72804641723633	-757.8294067382812	-1474.144165039062	244.4636383056641	-798.46484375	-1294.66796875	46.20634078979492	-716.165771484375	-1372.910522460938	45.31898498535156	-678.3206176757812	-1389.883911132812	41.88642501831055	-782.225341796875	-1546.0205078125	41.54292678833008	-697.16552734375	-1415.275146484375	476.843505859375	-498.1108093261719	-1373.833984375	740.6841430664062	-481.8628234863281	-1460.689453125	58.19995880126953	-528.1412353515625	-1406.540283203125	351.6897583007812	-513.6077880859375	-1283.51220703125	40.09111022949219	-599.3649291992188	-1362.012329101562	43.67634963989258	-625.6373291015625	-1375.9111328125	48.82345581054688	-527.642333984375	-1535.9521484375	44.1949577331543	-577.3599853515625	
3	0.02	-1540.113891601562	992.9850463867188	-586.4351196289062	-1551.672973632812	984.306884765625	-717.1907348632812	-1544.493041992188	1061.115478515625	-650.0902099609375	-1309.194091796875	1214.794921875	-661.3705444335938	-1553.963745117188	1164.934814453125	-654.601806640625	-1516.441162109375	1413.655883789062	-666.7174072265625	-1359.048217773438	1333.97900390625	-661.26513671875	-1558.104125976562	1268.95263671875	-595.9459838867188	-1530.422729492188	1374.919677734375	-771.0862426757812	-1443.902465820312	1390.250610351562	-820.5978393554688	-1455.4580078125	1272.401123046875	-891.7274780273438	-1414.891845703125	1074.796875	-906.2528076171875	-1477.117797851562	1052.000244140625	-853.4243774414062	-1315.870849609375	868.2552490234375	-832.3330688476562	-1348.4072265625	849.4808959960938	-905.1385498046875	-1387.269409179688	971.9343872070312	-908.139404296875	-1301.745361328125	691.8787231445312	-822.9010620117188	-1328.920654296875	765.728271484375	-889.9539794921875	-1287.61474609375	774.1145629882812	-842.8118286132812	-1452.637329101562	1392.64794921875	-508.1773986816406	-1457.98291015625	1325.9921875	-448.7205200195312	-1414.631591796875	1065.130249023438	-410.6435546875	-1446.741821289062	1053.013427734375	-496.4138793945312	-1276.97021484375	858.3556518554688	-461.5594177246094	-1306.001953125	845.2127075195312	-392.6931457519531	-1380.474365234375	1003.900390625	-398.7177124023438	-1270.947875976562	684.4453735351562	-461.9487609863281	-1250.292358398438	753.8029174804688	-447.741455078125	-1295.35400390625	756.788330078125	-394.2411193847656	-1503.232299804688	1591.683959960938	-578.90771484375	-1349.805541992188	1620.736938476562	-704.35546875	-1372.02490234375	1616.374877929688	-582.7626342773438	-1492.416137695312	1594.539916992188	-740.9773559570312	-1471.14599609375	969.695068359375	-834.621826171875	-1450.75634765625	968.5714111328125	-476.3692932128906	-1322.94287109375	973.4898071289062	-539.84228515625	-1355.078125	965.8406372070312	-800.2175903320312	-1428.535522460938	475.2927551269531	-812.6808471679688	-1434.364013671875	617.4996948242188	-824.8219604492188	-1515.169311523438	42.72990798950195	-757.831787109375	-1474.148803710938	244.4627685546875	-798.4715576171875	-1294.732543945312	46.23919677734375	-716.1778564453125	-1372.765625	45.37216567993164	-678.2902221679688	-1389.89453125	41.89081192016602	-782.2228393554688	-1546.01953125	41.54182052612305	-697.1663208007812	-1415.244506835938	476.864013671875	-498.1561279296875	-1373.796875	740.6959838867188	-481.8430786132812	-1460.677001953125	58.20793151855469	-528.1387939453125	-1406.513305664062	351.6866760253906	-513.6416625976562	-1283.517700195312	40.0803108215332	-599.3890380859375	-1362.005004882812	43.67774200439453	-625.656982421875	-1375.910888671875	48.83041000366211	-527.6445922851562	-1536.0126953125	44.23339080810547	-577.38232421875	
4	0.03	-1540.16552734375	992.9725952148438	-586.4432373046875	-1551.76904296875	984.295166015625	-717.2015380859375	-1544.5478515625	1061.12646484375	-650.09814453125	-1309.207641601562	1214.802001953125	-661.4185791015625	-1554.005493164062	1164.953002929688	-654.6135864257812	-1516.4560546875	1413.668579101562	-666.7471313476562	-1359.053833007812	1333.972534179688	-661.2899780273438	-1558.115966796875	1268.97021484375	-595.9661254882812	-1530.459228515625	1374.93505859375	-771.1204833984375	-1443.935791015625	1390.2529296875	-820.6434936523438	-1455.527587890625	1272.401611328125	-891.7586669921875	-1414.950317382812	1074.784545898438	-906.2636108398438	-1477.216674804688	1052.010131835938	-853.4307250976562	-1316.20068359375	868.1522216796875	-832.3546752929688	-1348.627075195312	849.441162109375	-905.1785888671875	-1387.380004882812	971.9107055664062	-908.1712646484375	-1301.973754882812	691.814453125	-822.9530029296875	-1329.1494140625	765.6890258789062	-889.9937744140625	-1287.744262695312	774.0363159179688	-842.7882080078125	-1452.630249023438	1392.65185546875	-508.2221069335938	-1457.97802734375	1325.996704101562	-448.7535400390625	-1414.632446289062	1065.136352539062	-410.6611633300781	-1446.714721679688	1053.019165039062	-496.421630859375	-1277.025634765625	858.3670654296875	-461.6504821777344	-1306.04931640625	845.201171875	-392.7486877441406	-1380.503051757812	1003.900634765625	-398.7595520019531	-1271.114501953125	684.4358520507812	-462.0443115234375	-1250.283935546875	753.787109375	-447.8378295898438	-1295.369995117188	756.7566528320312	-394.2879638671875	-1503.2333984375	1591.64794921875	-578.902099609375	-1349.843383789062	1620.75634765625	-704.3775634765625	-1372.015991210938	1616.337036132812	-582.7989501953125	-1492.48876953125	1594.549194335938	-740.9739379882812	-1471.24267578125	969.6859130859375	-834.6397094726562	-1450.677734375	968.3832397460938	-476.5528259277344	-1322.989135742188	973.5156860351562	-539.8832397460938	-1355.146118164062	965.86279296875	-800.2418823242188	-1428.538452148438	475.2933044433594	-812.6871948242188	-1434.377807617188	617.4954833984375	-824.834228515625	-1515.16796875	42.72973251342773	-757.8338623046875	-1474.154907226562	244.4610595703125	-798.4779052734375	-1294.792602539062	46.26940155029297	-716.1890258789062	-1372.652221679688	45.41430282592773	-678.2658081054688	-1389.90380859375	41.89522552490234	-782.221435546875	-1546.021118164062	41.54272079467773	-697.16552734375	-1415.215698242188	476.8836364746094	-498.2103881835938	-1373.78466796875	740.7066650390625	-481.8219299316406	-1460.6669921875	58.21571731567383	-528.1375732421875	-1406.480834960938	351.6840209960938	-513.6814575195312	-1283.528930664062	40.07256698608398	-599.409912109375	-1361.997436523438	43.67971801757812	-625.675048828125	-1375.91064453125	48.83903121948242	-527.6468505859375	-1536.102294921875	44.2900390625	-577.4169311523438	
